<svg id="icon-fb-white" data-name="icon-fb-white" xmlns="http://www.w3.org/2000/svg" stroke-width="2" viewBox="0 0 70 70"><defs><style>.icon-fb-white{fill:#fff;}</style></defs><title>icon_share-on-facebook</title><path class="icon-fb-white" d="M37.44,28.16V23.47q0-2.26,3-2.26a11.54,11.54,0,0,1,3.3.52l1-6.25-7.3-.7a7.63,7.63,0,0,0-6.6,3.13Q29.62,19.47,29.62,24v4.17H25.45v5.91h4.17V54.91h7.82V34.06h6.08L44,28.16h-6.6Z"/><path class="icon-fb-white" d="M35.1,69.82A34.93,34.93,0,1,1,70,34.89,35,35,0,0,1,35.1,69.82Zm0-68.19A33.26,33.26,0,1,0,68.35,34.89,33.29,33.29,0,0,0,35.1,1.63Z"/></svg>