<svg id="icon-map-duck" data-name="Ebene 1" xmlns="http://www.w3.org/2000/svg" viewBox="0 0 70 70">
	<defs><style>.cls-1{fill:#1d1d1b;}.cls-2{fill:#fff;}</style></defs>
	<title>icon-map-duck</title>
	<path class="cls-1" d="M59.38,24.22a24.39,24.39,0,1,0-44.6,13.61h0L35,70.15,54.7,38.62H54.64a24.23,24.23,0,0,0,4.74-14.39"/><path class="cls-2" d="M38.36,39.55a14,14,0,0,0,5.4-1.45c1.52-.81,2.84-1.69,3.32-3.51a8.93,8.93,0,0,0-.49-5.81A20.6,20.6,0,0,0,43.52,25a9,9,0,0,1,1.14-1.43c0.66,0,1.16-.26,1.86-0.26a3.82,3.82,0,0,1,1,.18,3.58,3.58,0,0,0,.92.26,0.93,0.93,0,0,0,.84-0.63,2.16,2.16,0,0,0-.51-1c0.26-.54.87-1.07,1.16-1.71,0.21-.47.24-1.76-0.29-1.88a1.45,1.45,0,0,0-.79.3,2.36,2.36,0,0,1-2,.33c-0.91-.29-1-1.18-1.32-2.1a6.21,6.21,0,0,0-1-1.81,7.45,7.45,0,0,0-5.67-2.85,7.62,7.62,0,0,0-5.16,1.9A6.61,6.61,0,0,0,32,17.53a9.9,9.9,0,0,0-.45,2.59,4.43,4.43,0,0,0,.53,2.51,10.42,10.42,0,0,0,3.16,2.9c-1.08.13-2,0-2.91,0A6.64,6.64,0,0,0,30.7,26c-1,.34-2,0.7-3,1.08a6.93,6.93,0,0,1-1.51.51,2.82,2.82,0,0,1-2-.76,11.88,11.88,0,0,1-2.75-2.45,1,1,0,0,0-.55-0.49,0.86,0.86,0,0,0-.53.88,2.53,2.53,0,0,0,.16.69,0.54,0.54,0,0,1-.12-0.2,0.29,0.29,0,0,0-.26-0.14c-0.39,0-.4.63-0.43,1.18a5,5,0,0,0,.59,2.59c0.17,0.38.37,0.71,0.53,1.06s0.29,0.89.43,1.29A14.49,14.49,0,0,0,23,34.61a10.23,10.23,0,0,0,3.49,3.34,14.39,14.39,0,0,0,5.34,1.51,32.9,32.9,0,0,0,6.53.1"/>
</svg>