<svg id="Ebene_1" data-name="Ebene 1" xmlns="http://www.w3.org/2000/svg" viewBox="0 0 70 70"><defs><style>.cls-1{fill:#04e0d7;}</style></defs><title>icons_meineperfektewg</title><path class="cls-1" d="M62.26,69.91a1.13,1.13,0,0,1-.8-0.33L45,53.08a28.93,28.93,0,1,1,8.13-8.14L69.59,61.45a1.14,1.14,0,0,1,0,1.61l-6.53,6.53A1.13,1.13,0,0,1,62.26,69.91ZM47.12,52L62.26,67.17l4.92-4.92L52.12,47.19ZM29,2.36A26.63,26.63,0,1,0,55.62,29,26.66,26.66,0,0,0,29,2.36Z"/><path class="cls-1" d="M30.73,49.57H27A3.44,3.44,0,0,1,23.64,46v-10a4,4,0,0,1-3.36-4V25.54a4.63,4.63,0,0,1,1.06-3.34,4.09,4.09,0,0,1,3.16-1.53h8.7a4.09,4.09,0,0,1,3.16,1.53,4.51,4.51,0,0,1,1.06,3.26v6.6a4,4,0,0,1-3.36,4V46A3.44,3.44,0,0,1,30.73,49.57ZM24.49,22.68a2.09,2.09,0,0,0-1.6.79,2.64,2.64,0,0,0-.6,2.07v6.51a2,2,0,0,0,2,2.06h1.34V46A1.43,1.43,0,0,0,27,47.56h3.76A1.43,1.43,0,0,0,32,46V34.12h1.34a2,2,0,0,0,2-2.06v-6.6a2.55,2.55,0,0,0-.6-2,2.09,2.09,0,0,0-1.61-.79h-8.7ZM42.17,43.6h-2.8a2.81,2.81,0,0,1-2.73-2.88V36.55h2v4.17a0.8,0.8,0,0,0,.72.87h2.8a0.8,0.8,0,0,0,.72-0.87V31.59h1.25a1.23,1.23,0,0,0,1.24-1.27v-4.9A1.65,1.65,0,0,0,45,24.11a1.29,1.29,0,0,0-1-.5H39.18v-2H44a3.3,3.3,0,0,1,2.55,1.23,3.62,3.62,0,0,1,.84,2.58v4.9a3.24,3.24,0,0,1-2.5,3.2v7.2A2.81,2.81,0,0,1,42.17,43.6Zm-23.28,0h-2.8a2.81,2.81,0,0,1-2.73-2.88v-7.2a3.24,3.24,0,0,1-2.5-3.2v-4.9a3.62,3.62,0,0,1,.84-2.59,3.3,3.3,0,0,1,2.55-1.23h4.82v2H14.25a1.29,1.29,0,0,0-1,.5,1.65,1.65,0,0,0-.39,1.31v4.9a1.23,1.23,0,0,0,1.24,1.27h1.26v9.12a0.8,0.8,0,0,0,.72.87h2.8a0.8,0.8,0,0,0,.72-0.87V36.55h2v4.17A2.81,2.81,0,0,1,18.88,43.6Zm21.8-22.9a4.13,4.13,0,1,1,4.13-4.13A4.13,4.13,0,0,1,40.68,20.69Zm0-6.25a2.12,2.12,0,1,0,2.12,2.12A2.12,2.12,0,0,0,40.68,14.45ZM17.57,20.69a4.13,4.13,0,1,1,4.13-4.13A4.13,4.13,0,0,1,17.57,20.69Zm0-6.25a2.12,2.12,0,1,0,2.12,2.12A2.12,2.12,0,0,0,17.57,14.45ZM28.85,20a5.21,5.21,0,1,1,5.21-5.21A5.21,5.21,0,0,1,28.85,20Zm0-8.4a3.2,3.2,0,1,0,3.2,3.2A3.2,3.2,0,0,0,28.85,11.59Z"/></svg>