<svg id="Ebene_1" data-name="Ebene 1" xmlns="http://www.w3.org/2000/svg" viewBox="0 0 70 70"><defs><style>.cls-1{fill:#04e0d7;}</style></defs><title>icons_meineperfektewg</title><path class="cls-1" d="M21.72,23.67a4,4,0,1,0,4,4,4,4,0,0,0-4-4m0,10.21A6.23,6.23,0,1,1,28,27.65a6.23,6.23,0,0,1-6.23,6.23"/><path class="cls-1" d="M16.44,37.14a2.64,2.64,0,0,0-2,1,3.31,3.31,0,0,0-.75,2.57v7.91a2.52,2.52,0,0,0,2.55,2.6h1.53v14.4a1.83,1.83,0,0,0,1.7,1.94H24a1.83,1.83,0,0,0,1.7-1.94V51.23h1.53a2.52,2.52,0,0,0,2.55-2.6v-8A3.2,3.2,0,0,0,29,38.15a2.64,2.64,0,0,0-2-1H16.44ZM24,69.82H19.44a4.08,4.08,0,0,1-3.94-4.19V53.43a4.77,4.77,0,0,1-4.08-4.8V40.72a5.47,5.47,0,0,1,1.26-4,4.88,4.88,0,0,1,3.76-1.82H27a4.88,4.88,0,0,1,3.76,1.82A5.39,5.39,0,0,1,32,40.62v8A4.77,4.77,0,0,1,28,53.43v12.2A4.08,4.08,0,0,1,24,69.82"/><path class="cls-1" d="M46.43,23.67a4,4,0,1,0,4,4,4,4,0,0,0-4-4m0,10.21a6.23,6.23,0,1,1,6.23-6.23,6.23,6.23,0,0,1-6.23,6.23"/><path class="cls-1" d="M41.14,37.14a2.64,2.64,0,0,0-2,1,3.31,3.31,0,0,0-.75,2.57v7.91a2.52,2.52,0,0,0,2.55,2.6h1.53v14.4a1.83,1.83,0,0,0,1.7,1.94h4.57a1.83,1.83,0,0,0,1.7-1.94V51.23h1.53a2.52,2.52,0,0,0,2.55-2.6v-8a3.19,3.19,0,0,0-.75-2.47,2.64,2.64,0,0,0-2-1H41.14Zm7.57,32.67H44.15a4.07,4.07,0,0,1-3.94-4.19V53.43a4.77,4.77,0,0,1-4.08-4.8V40.72a5.47,5.47,0,0,1,1.26-4,4.88,4.88,0,0,1,3.76-1.82H51.72a4.88,4.88,0,0,1,3.76,1.82,5.39,5.39,0,0,1,1.26,3.9v8a4.77,4.77,0,0,1-4.08,4.8v12.2a4.08,4.08,0,0,1-3.94,4.19"/><path class="cls-1" d="M3.85,22.57a0.34,0.34,0,0,0,.38,0L35,6,65.77,22.6a0.36,0.36,0,0,0,.38,0l1.42-2.7,1.08-.3-1.08.3a0.13,0.13,0,0,0-.07-0.07l-11.16-6V4.87a0.19,0.19,0,0,0-.19-0.19H52a0.19,0.19,0,0,0-.19.19V11.4L35.17,2.47a0.38,0.38,0,0,0-.34,0L2.5,19.79l0,0,0,0.14Zm0.21,2.32A2.51,2.51,0,0,1,2,23.79l-0.06-.1L0.5,21a2.2,2.2,0,0,1-.24-1.76,2.37,2.37,0,0,1,1.17-1.45L33.76,0.49a2.63,2.63,0,0,1,2.47,0L49.6,7.65V4.87A2.44,2.44,0,0,1,52,2.43h4.12a2.44,2.44,0,0,1,2.44,2.44v7.6l10,5.35a2.39,2.39,0,0,1,1.18,1.45h0a2.26,2.26,0,0,1-.3,1.85L68,23.79a2.57,2.57,0,0,1-3.34.79L35,8.58l-29.7,16a2.57,2.57,0,0,1-1.23.31"/></svg>