<svg id="Ebene_1" data-name="Ebene 1" xmlns="http://www.w3.org/2000/svg" viewBox="0 0 70 70"><defs><style>.cls-1{fill:#646464;}</style></defs><title>icons_meineperfektewg</title><rect class="cls-1" x="6.61" y="60.11" width="55.66" height="2.81"/><path class="cls-1" d="M2.92,41.89V67.43l3.62,0.16V45.5H63.47V67.43L67,67.58l0.06-25h0l0-.54-3.59-.11H2.92ZM67.09,70H63.47a2.5,2.5,0,0,1-2.41-2.57V47.92H8.94V67.43A2.5,2.5,0,0,1,6.53,70H2.92A2.5,2.5,0,0,1,.51,67.43l0.12-26.1a2.41,2.41,0,0,1,2.29-1.86H67.09a2.42,2.42,0,0,1,2.31,1.91l0.1,0.15V67.43A2.49,2.49,0,0,1,67.09,70"/><path class="cls-1" d="M23.76,8.07A2.45,2.45,0,0,0,21.2,10.4V24.27a2.45,2.45,0,0,0,2.56,2.32H46.24a2.46,2.46,0,0,0,2.56-2.32V10.4a2.46,2.46,0,0,0-2.56-2.32H23.76ZM46.24,29H23.76a4.86,4.86,0,0,1-5-4.73V10.4a4.86,4.86,0,0,1,5-4.73H46.24a4.87,4.87,0,0,1,5,4.73V24.27a4.86,4.86,0,0,1-5,4.73"/><path class="cls-1" d="M58.31,24.66H50V22.24h5.88V3.34A0.93,0.93,0,0,0,55,2.41H15a0.92,0.92,0,0,0-.92.93v18.9H20v2.41h-8.3V3.34A3.34,3.34,0,0,1,15,0H55a3.34,3.34,0,0,1,3.33,3.34V24.66Z"/><rect class="cls-1" x="59.55" y="22.69" width="2.41" height="18.29" transform="translate(-7.66 26.97) rotate(-23.58)"/><rect class="cls-1" x="0.1" y="30.62" width="18.28" height="2.41" transform="translate(-23.62 27.54) rotate(-66.37)"/></svg>