<svg id="icon-nr-1" data-name="Nr 1" xmlns="http://www.w3.org/2000/svg" viewBox="0 0 70 70">
	<title>icon-nr-1</title>
	<defs><style>.cls-1{fill:#646464;}</style></defs>
	<path class="cls-1" d="M1.17,53.34H9.75v-34L1.17,20V6.69a32.39,32.39,0,0,0,9.55-1.62A39.15,39.15,0,0,0,21,0H31.71V53.34h8.58V68.4H1.17V53.34Z"/>
	<path class="cls-1" d="M45.88,59.62a8.94,8.94,0,0,1,1-4.14,10.43,10.43,0,0,1,2.57-3.24,12.32,12.32,0,0,1,3.67-2.12,12.1,12.1,0,0,1,4.27-.77,12.1,12.1,0,0,1,8.06,3.07,11,11,0,0,1,2.49,3.27,8.71,8.71,0,0,1,.92,3.94,9.16,9.16,0,0,1-1,4.24,10.71,10.71,0,0,1-2.57,3.27,11.63,11.63,0,0,1-3.67,2.12,12.78,12.78,0,0,1-8.76-.05A11.44,11.44,0,0,1,49.22,67a10.39,10.39,0,0,1-2.45-3.29A9.45,9.45,0,0,1,45.88,59.62Z"/></svg>