<svg id="icon-nr-3" data-name="Nr 3" xmlns="http://www.w3.org/2000/svg" viewBox="0 0 70 70">
	<defs><style>.cls-1{fill:#646464;}</style></defs>
	<title>icon-nr-3</title>
	<path class="cls-1" d="M18.15,17.12q-5.81,0-14.91,2.74L0,7.61a50,50,0,0,1,21.12-5,24.06,24.06,0,0,1,7.52,1.14,21.08,21.08,0,0,1,6.1,3.09,14.73,14.73,0,0,1,4.09,4.57,11.13,11.13,0,0,1,1.49,5.55q0,9.56-8.87,15.27a19.74,19.74,0,0,1,8.66,6.65,17.4,17.4,0,0,1,3,10.36,15.61,15.61,0,0,1-1.65,7.11A16.48,16.48,0,0,1,36.9,62a22.64,22.64,0,0,1-7.27,3.68A31.66,31.66,0,0,1,20.16,67,66.54,66.54,0,0,1,0,63.3l3.2-13.72a36.94,36.94,0,0,0,13.9,3,10.8,10.8,0,0,0,5.62-1.19q1.92-1.19,1.92-4.16A5.68,5.68,0,0,0,23.14,43a9.91,9.91,0,0,0-4-2.36,23.31,23.31,0,0,0-5.49-1q-3-.23-6-0.23V27.82q8.14,0,12.32-1.69t4.18-4.71A3.65,3.65,0,0,0,22.66,18,8.78,8.78,0,0,0,18.15,17.12Z"/><path class="cls-1" d="M48.92,57.91a8.19,8.19,0,0,1,.89-3.79,9.54,9.54,0,0,1,2.35-3,11.26,11.26,0,0,1,3.36-1.94,11.09,11.09,0,0,1,3.91-.71,11.1,11.1,0,0,1,7.38,2.81,10.11,10.11,0,0,1,2.29,3A8,8,0,0,1,70,57.91a8.4,8.4,0,0,1-.89,3.89,9.81,9.81,0,0,1-2.35,3,10.66,10.66,0,0,1-3.36,1.94,11.71,11.71,0,0,1-8,0,10.48,10.48,0,0,1-3.34-2,9.52,9.52,0,0,1-2.24-3A8.66,8.66,0,0,1,48.92,57.91Z"/>
</svg>