<svg xmlns="http://www.w3.org/2000/svg" id="icon-chat" data-name="Icon Chat" viewBox="0 0 70 70" width="20px" height="20px"><defs><style>.icon-chat{fill:#fff;}</style></defs><title>icons_meineperfektewg</title><path class="icon-chat" d="M0,0V52.26H9.3L9.77,69.16l27-16.91H70.12V0H0ZM66.53,48.66H35.76L13.18,62.78,12.8,48.66H3.59V3.59H66.53V48.66Z"></path><polygon class="icon-chat" points="24.12 39.86 24.1 28.6 34.09 28.58 34.11 39.84 39.51 39.84 39.47 12.83 34.06 12.84 34.08 23.18 24.09 23.2 24.08 12.86 18.68 12.87 18.72 39.87 24.12 39.86"></polygon><rect class="icon-chat" x="43.54" y="23.2" width="4.98" height="16.63" transform="translate(-0.03 0.05) rotate(-0.06)"></rect><rect class="icon-chat" x="43.52" y="12.79" width="4.97" height="5.4" transform="translate(-0.02 0.07) rotate(-0.09)"></rect></svg>