<svg id="icon-mann-circle" data-name="Icon Mann" xmlns="http://www.w3.org/2000/svg" width="32px" height="32px" viewBox="0 0 70 70"><defs><style>.svg-icon-mann-circle{fill:#1d1d1b;}</style></defs><title>icons_meineperfektewg</title><path class="svg-icon-mann-circle" d="M34.94,0A34.94,34.94,0,1,0,69.88,34.94,35,35,0,0,0,34.94,0Zm0,68.1A33.16,33.16,0,1,1,68.1,34.94,33.19,33.19,0,0,1,34.94,68.1Z"/><path class="svg-icon-mann-circle" d="M40.39,7.85c-7.17-1.7-13.27,1.1-17.78,6.52-3-.32-6.26,2.17-7.28,6.48,1.11-4.15,4.78-6.6,7.11-6.14-3.92,0-7.41,4.16-7.84,11.1L15.16,25c0.06,2.75.18,5.11,0.5,7.85l0.18-.56c0,0.15,0,.32,0,0.51,0,0.48.05,1.15,0.08,1.38a0.94,0.94,0,0,1,.37.11c0.2,2.27.38,4.33,0.76,6.86l0.2-.93a16.11,16.11,0,0,0,1.29,4c0.14,1,.26,2,0.43,2.94,0.58,3.27,1,6,2,8.18a19.85,19.85,0,0,0,4.52,5.35,17.88,17.88,0,0,0,6.76,4.09,12.25,12.25,0,0,0,5.43,0A21.07,21.07,0,0,0,45,60.26a19.29,19.29,0,0,0,4.35-5.35c1-2.19,1.06-4.52,1.64-7.79,0.22-1.21.36-2.51,0.56-3.92,1.26-2.8.67-4.55,1.47-7.73,0,1,.14,1.8.25,2.78,0.48-2.85,1.08-4.58,1.45-6.59C57.36,17.68,50.06,10.14,40.39,7.85ZM16,31.73l0-.15v0.1Zm3.36,4.64a38.85,38.85,0,0,0,.4-4.17,9,9,0,0,1,4.58-.89c2.7,0,6.51.68,7.41,2.23a4.13,4.13,0,0,1,.3,2.92,7.73,7.73,0,0,1-3.25,5.14,8.52,8.52,0,0,1-5.62,1.1,6.18,6.18,0,0,1-3.24-1.18,4.15,4.15,0,0,1-1.06-1.79A24.92,24.92,0,0,1,19.36,36.37Zm21.8,17.57A10,10,0,0,1,39,55.2a4.22,4.22,0,0,1-2.09.12A13.94,13.94,0,0,0,35,55.14a11.47,11.47,0,0,0-1.88.19,4.21,4.21,0,0,1-2.09-.12,9.92,9.92,0,0,1-2.21-1.26,8.48,8.48,0,0,1-1.76-1.52,3.66,3.66,0,0,0,1.08-.17,6.23,6.23,0,0,0,2.72-1.62,3.7,3.7,0,0,1-.73,1c0.52-.22,2.26-1.45,2.92-1.79,0.22-.11.34-0.06,0.28,0.44,0.24,0,1.67-.45,1.77-0.43,0.59,0.11,1.43.38,1.58,0.38,0-.16-0.07-0.51.23-0.45A15.91,15.91,0,0,1,39,51.06a2.15,2.15,0,0,1-.31-0.88A11.12,11.12,0,0,0,41.49,52a5.56,5.56,0,0,1-.38-0.64,3.88,3.88,0,0,0,1.87,1A9.11,9.11,0,0,1,41.17,53.94Zm6.37-5.69c-1,1.94-.9,2.61-2.37,5.1,0.59-3.67-1.32-4.63-5.17-5.77,0.77-.18,1.56-0.16,2.31-0.34a19.82,19.82,0,0,0-4.2-.82c-0.25,0-1.35.91-2.47,0.93a5.84,5.84,0,0,1-2.36-.82,26.28,26.28,0,0,0-4,.88l2,0.31c-4.69,2.32-4.67.47-6.14,5.47C21,45.82,20.5,49.53,18.9,42.11h0a2.66,2.66,0,0,0,.53.49c2.45,1.18,6.62,1.6,9.16.36a8.88,8.88,0,0,0,3.76-4.15,24,24,0,0,0,1.34-3.3,1.16,1.16,0,0,1,1.23-.66,1.16,1.16,0,0,1,1.23.66,23.38,23.38,0,0,0,1.34,3.3A8.88,8.88,0,0,0,41.25,43c2.53,1.24,6.69.83,9.14-.35C49.36,44.82,48.15,47.07,47.54,48.25Zm3.74-11.31c0,0.39,0,.83.06,1.32-0.05.25-.11,0.5-0.17,0.74a5.12,5.12,0,0,1-1.28,2.52,6.18,6.18,0,0,1-3.24,1.18A8.52,8.52,0,0,1,41,41.6a7.72,7.72,0,0,1-3.25-5.14,4.12,4.12,0,0,1,.3-2.92c0.9-1.55,4.71-2.22,7.41-2.23,2.88,0,4.65.57,5.53,1.73,0,1.2-.18,2.55-0.24,4.46Zm-1.2-6.07a30.23,30.23,0,0,0-5.11-.4,37.85,37.85,0,0,0-8.31,1.46L34.94,32l0,0.06,0-.06-1.72-.05a37.85,37.85,0,0,0-8.31-1.46,29.56,29.56,0,0,0-4.9.37c0.7-3.63,2.12-6.93,3-11.2,18-6,19.68,4.12,26.56,10L48.89,27.8A9.76,9.76,0,0,1,50.73,31Z"/></svg>