<svg id="icon-impressum" xmlns="http://www.w3.org/2000/svg" enable-background="new 0 0 32 32" height="20px" version="1.1" viewBox="0 0 32 32" width="20px" > <g id="background"> 	<rect fill="none" height="20" width="20"/> </g> <g id="imprint" fill="#04E0D7"> <rect height="2" width="10" x="4" y="14"/> <rect height="2" width="10" x="4" y="18"/> <rect height="2" width="6" x="4" y="22"/> <path d="M0,6v26h32V6H0z M30,30H2l0.08-20H30V30z" fill="#04E0D7"/> <g> <g> <path d="M20,20c2.209,0,4-1.791,4-4s-1.791-4-4-4s-4,1.791-4,4S17.791,20,20,20z M26,22H14c0,0-2,0-2,2v4h16v-4     C28,24,28,22,26,22z" fill="#04E0D7"/> </g> </g> </g> </svg>