<svg id="Ebene_1" data-name="Ebene 1" xmlns="http://www.w3.org/2000/svg" viewBox="0 0 70 70"><defs><style>.cls-1{fill:#1d1d1b;}</style></defs><title>icons_meineperfektewg</title><path class="cls-1" d="M35,0A35,35,0,1,0,70,35,35,35,0,0,0,35,0Zm0,68.19A33.2,33.2,0,1,1,68.19,35,33.24,33.24,0,0,1,35,68.19Z"/><path class="cls-1" d="M36.45,52.07c-0.45,0-.85-0.37-1.31-0.41-1.64-.14-2.52,1.34-4,1.72,1.19,2.47,4.74,5.39,8.1,3a13.65,13.65,0,0,0,2.45-3c-1.45-.38-2.24-1.77-3.84-1.72C37.41,51.68,36.93,52.07,36.45,52.07Zm-2.62,3.27a8.18,8.18,0,0,0,3.76.73A3.19,3.19,0,0,1,33.83,55.34Zm4.66,0.49a1.3,1.3,0,0,1-.82-0.16s0.57-.69.82-0.33C38.49,55.34,38.7,55.69,38.49,55.83Zm0.65-3.11c-1.21-.78-2.24.58-3.16-0.17C37,53.1,38.48,51.31,39.15,52.73Z"/><path class="cls-1" d="M28.82,14.38a5.8,5.8,0,0,1,.35,3.14c3.37,0.81,7.1.53,7.58,0,0.16-.78-1-10.08-4.22-11.93a1.34,1.34,0,0,0-1.15-.1c-1.75.54-3.81,3.55-5.17,5.94A5.79,5.79,0,0,1,28.82,14.38Z"/><path class="cls-1" d="M22.14,19.94c0.33,0.14.81,0.42,1.1,0.5a3.81,3.81,0,0,0,1.06.15,3.59,3.59,0,0,0,1.36-.27,3.75,3.75,0,0,0,2-2A6.26,6.26,0,0,0,28,17.19a4.63,4.63,0,0,0-2.36-4.68,5.18,5.18,0,0,0-1.15-.41,4,4,0,0,0-.7-0.07,3.6,3.6,0,0,0-1.36.27,3.65,3.65,0,0,0-1.34.94c-0.14.26-.48,0.78-0.68,1.05a4.5,4.5,0,0,0,0,3.5A4.6,4.6,0,0,0,22.14,19.94Z"/><path class="cls-1" d="M36,8.5c1.55,3.69,2.09,8.53,1.86,9.45a1.27,1.27,0,0,1-.82.82,9.35,9.35,0,0,1-3.44.5,20.38,20.38,0,0,1-4.78-.58,5,5,0,0,1-2.73,2.77,4.88,4.88,0,0,1-1.82.35,5.06,5.06,0,0,1-1.71-.31c-1.73,2.6-4.17,4.85-5.61,5.38a1.74,1.74,0,0,1-.62.13,1,1,0,0,1-.54-0.15,5.7,5.7,0,0,1-1-1C11.38,36.75,13,52,18.68,62.51c2.16-3.33,8.08-4.72,8.08-4.72C16.63,44.62,22,30.18,22,30.18c0.54,7.43,3.37,10.1,3.37,10.1-2.21-11.79,2.69-18.86,2.69-18.86,1.41,6.28,5.39,7.41,5.39,7.41a3.93,3.93,0,0,1,0-4C40.65,34.89,47,33.55,47,33.55c14.64,4.32,0,22.9,0,22.9,5.61,1.86,7.41,5.39,7.41,5.39C65.56,45.29,56.67,3.51,36,8.5Z"/><path class="cls-1" d="M16.46,25.83c0.58,0,3.19-2.16,5-4.87a5.82,5.82,0,0,1-2.24-2.71,5.72,5.72,0,0,1,0-4.3c-2.58-.71-5.83-1.32-7.37-0.54a1.35,1.35,0,0,0-.76.87C10.12,17.82,15.71,25.35,16.46,25.83Z"/></svg>