<svg xmlns="http://www.w3.org/2000/svg" id="icon-calender-icon-calender" viewBox="0 0 70 70" data-name="Calender" width="34" height="34"><defs><style>.cls-1{fill:#04e0d7;}</style></defs><title>icon-calender</title><rect y="31.01" x="6.87" height="12.62" class="cls-1" width="15.77"/><rect y="46.95" x="6.87" height="12.62" class="cls-1" width="15.77"/><rect y="31.01" x="27.38" height="12.62" class="cls-1" width="15.77"/><rect y="46.95" x="27.38" height="12.62" class="cls-1" width="15.77"/><rect y="31.01" x="47.43" height="12.62" class="cls-1" width="15.77"/><rect y="46.95" x="47.43" height="12.62" class="cls-1" width="15.77"/><path class="cls-1" d="m70 22.43v-14.32h-11.53v8.65a2.78 2.78 0 0 1 -2.84 2.84h-10.1a2.78 2.78 0 0 1 -2.84 -2.84v-8.65h-16.3v8.65a2.78 2.78 0 0 1 -2.84 2.84h-10.1a2.78 2.78 0 0 1 -2.84 -2.84v-8.65h-10.53v58.27h69.92v-43.95zm-1.94 42h-66.06v-37.87h66v37.87z"/><path class="cls-1" d="m14.92 17.82h7.16a2.68 2.68 0 0 0 2.73 -2.73v-9.09a2.68 2.68 0 0 0 -2.73 -2.73h-7.16a2.68 2.68 0 0 0 -2.73 2.73v9.1a2.68 2.68 0 0 0 2.73 2.72z"/><path class="cls-1" d="m47 17.82h7.16a2.68 2.68 0 0 0 2.73 -2.73v-9.09a2.68 2.68 0 0 0 -2.73 -2.73h-7.16a2.68 2.68 0 0 0 -2.74 2.73v9.1a2.68 2.68 0 0 0 2.74 2.72z"/></svg>