<?xml version="1.0"?>
<!--Icons from directory ""-->
<svg xmlns="http://www.w3.org/2000/svg" width="90" height="406" viewBox="0 0 90 406"><svg id="icon-arrow-down" viewBox="0 0 70 70" data-name="Arrow down" width="34" height="34" y="0"><defs><style>.cls-1{fill:#04e0d7;}</style></defs><title>icon-arrow-down</title><polygon points="34.82 53.1 0.05 21.16 3.48 17.42 34.81 46.2 66.51 16.9 69.95 20.63" class="cls-1"/></svg><svg id="icon-calender" viewBox="0 0 70 70" data-name="Calender" width="34" height="34" y="34"><defs><style>.cls-1{fill:#04e0d7;}</style></defs><title>icon-calender</title><rect y="31.01" x="6.87" height="12.62" class="cls-1" width="15.77"/><rect y="46.95" x="6.87" height="12.62" class="cls-1" width="15.77"/><rect y="31.01" x="27.38" height="12.62" class="cls-1" width="15.77"/><rect y="46.95" x="27.38" height="12.62" class="cls-1" width="15.77"/><rect y="31.01" x="47.43" height="12.62" class="cls-1" width="15.77"/><rect y="46.95" x="47.43" height="12.62" class="cls-1" width="15.77"/><path class="cls-1" d="m70 22.43v-14.32h-11.53v8.65a2.78 2.78 0 0 1 -2.84 2.84h-10.1a2.78 2.78 0 0 1 -2.84 -2.84v-8.65h-16.3v8.65a2.78 2.78 0 0 1 -2.84 2.84h-10.1a2.78 2.78 0 0 1 -2.84 -2.84v-8.65h-10.53v58.27h69.92v-43.95zm-1.94 42h-66.06v-37.87h66v37.87z"/><path class="cls-1" d="m14.92 17.82h7.16a2.68 2.68 0 0 0 2.73 -2.73v-9.09a2.68 2.68 0 0 0 -2.73 -2.73h-7.16a2.68 2.68 0 0 0 -2.73 2.73v9.1a2.68 2.68 0 0 0 2.73 2.72z"/><path class="cls-1" d="m47 17.82h7.16a2.68 2.68 0 0 0 2.73 -2.73v-9.09a2.68 2.68 0 0 0 -2.73 -2.73h-7.16a2.68 2.68 0 0 0 -2.74 2.73v9.1a2.68 2.68 0 0 0 2.74 2.72z"/></svg><svg id="icon-lupe" viewBox="0 0 70 70" data-name="Lupe" width="34" height="34" y="68"><defs><style>.cls-1{fill:#04e0d7;}</style></defs><title>icon-lupe</title><path class="cls-1" d="m63.47 31.66a25.35 25.35 0 1 1 -25.35 -25.35 25.35 25.35 0 0 1 25.35 25.35m6.31 0a31.66 31.66 0 1 0 -56 20l-13.78 13.77 4.57 4.57 13.78-13.79a31.49 31.49 0 0 0 51.43 -24.55"/></svg><svg id="icon-map-duck" viewBox="0 0 70 70" data-name="Ebene 1" width="34" height="34" y="102"><defs><style>.cls-1{fill:#04e0d7;}.cls-2{fill:#fff;}</style></defs><title>icon-map-duck</title><path class="cls-1" d="m59.38 24.22a24.39 24.39 0 1 0 -44.6 13.61l20.22 32.32 19.7-31.53h-0.06a24.23 24.23 0 0 0 4.74 -14.39"/><path class="cls-2" d="m38.36 39.55a14 14 0 0 0 5.4 -1.45c1.52-0.81 2.84-1.69 3.32-3.51a8.93 8.93 0 0 0 -0.49 -5.81 20.6 20.6 0 0 0 -3.07 -3.78 9 9 0 0 1 1.14 -1.43c0.66 0 1.16-0.26 1.86-0.26a3.82 3.82 0 0 1 1 0.18 3.58 3.58 0 0 0 0.92 0.26 0.93 0.93 0 0 0 0.84 -0.63 2.16 2.16 0 0 0 -0.51 -1c0.26-0.54 0.87-1.07 1.16-1.71 0.21-0.47 0.24-1.76-0.29-1.88a1.45 1.45 0 0 0 -0.79 0.3 2.36 2.36 0 0 1 -2 0.33c-0.91-0.29-1-1.18-1.32-2.1a6.21 6.21 0 0 0 -1 -1.81 7.45 7.45 0 0 0 -5.67 -2.85 7.62 7.62 0 0 0 -5.16 1.9 6.61 6.61 0 0 0 -1.7 3.23 9.9 9.9 0 0 0 -0.45 2.59 4.43 4.43 0 0 0 0.53 2.51 10.42 10.42 0 0 0 3.16 2.9c-1.08 0.13-2 0-2.91 0a6.64 6.64 0 0 0 -1.63 0.47c-1 0.34-2 0.7-3 1.08a6.93 6.93 0 0 1 -1.51 0.51 2.82 2.82 0 0 1 -2 -0.76 11.88 11.88 0 0 1 -2.75 -2.45 1 1 0 0 0 -0.55 -0.49 0.86 0.86 0 0 0 -0.53 0.88 2.53 2.53 0 0 0 0.16 0.69 0.54 0.54 0 0 1 -0.12 -0.2 0.29 0.29 0 0 0 -0.26 -0.14c-0.39 0-0.4 0.63-0.43 1.18a5 5 0 0 0 0.59 2.59c0.17 0.38 0.37 0.71 0.53 1.06s0.29 0.89 0.43 1.29a14.49 14.49 0 0 0 1.74 3.37 10.23 10.23 0 0 0 3.49 3.34 14.39 14.39 0 0 0 5.34 1.51 32.9 32.9 0 0 0 6.53 0.1"/></svg><svg id="icon-nr-1" data-name="Nr 1" height="90" width="90" viewBox="0 0 70 70" y="136"><defs><style>.cls-1{fill:#04e0d7;}</style></defs><title>icon-nr-1</title><path class="cls-1" d="m1.17 53.34h8.58v-34l-8.58 0.66v-13.31a32.39 32.39 0 0 0 9.55 -1.62 39.15 39.15 0 0 0 10.28 -5.07h10.71v53.34h8.58v15.06h-39.12v-15.06z"/><path class="cls-1" d="m45.88 59.62a8.94 8.94 0 0 1 1 -4.14 10.43 10.43 0 0 1 2.57 -3.24 12.32 12.32 0 0 1 3.67 -2.12 12.1 12.1 0 0 1 4.27 -0.77 12.1 12.1 0 0 1 8.06 3.07 11 11 0 0 1 2.49 3.27 8.71 8.71 0 0 1 0.92 3.94 9.16 9.16 0 0 1 -1 4.24 10.71 10.71 0 0 1 -2.57 3.27 11.63 11.63 0 0 1 -3.67 2.12 12.78 12.78 0 0 1 -8.76 -0.05 11.44 11.44 0 0 1 -3.64 -2.21 10.39 10.39 0 0 1 -2.45 -3.29 9.45 9.45 0 0 1 -0.89 -4.09z"/></svg><svg id="icon-nr-2" data-name="Nr 2" height="90" width="90" viewBox="0 0 70 70" y="226"><defs><style>.cls-1{fill:#04e0d7;}</style></defs><title>icon-nr-2</title><path class="cls-1" d="m16.05 18.07a10 10 0 0 0 -1.56 0.14q-0.87 0.14-1.72 0.32t-1.56 0.41l-1.13 0.37-1.2 0.53-1.82 0.8q-0.94 0.42-2.32 1.06l-4.74-14.02a86.76 86.76 0 0 1 11.41 -3.86 44.66 44.66 0 0 1 11.13 -1.38 20.85 20.85 0 0 1 8.55 1.66 18.25 18.25 0 0 1 6.28 4.5 19.32 19.32 0 0 1 3.86 6.62 24.2 24.2 0 0 1 1.31 8 20.6 20.6 0 0 1 -1.79 8.49 31.76 31.76 0 0 1 -4.81 7.59 46.62 46.62 0 0 1 -6.94 6.62 76 76 0 0 1 -8.19 5.59l-1.43 0.87h21.2v13.71h-39.52v-13.24q5-4.65 9-9a107.1 107.1 0 0 0 7 -8.23 49.29 49.29 0 0 0 4.51 -7 12.11 12.11 0 0 0 1.61 -5.29 4.45 4.45 0 0 0 -0.64 -2.44 5 5 0 0 0 -1.68 -1.63 7.54 7.54 0 0 0 -2.3 -0.9 11.73 11.73 0 0 0 -2.51 -0.29z"/><path class="cls-1" d="m48.84 58a8.24 8.24 0 0 1 0.9 -3.82 9.59 9.59 0 0 1 2.37 -3 11.33 11.33 0 0 1 3.38 -2 11.15 11.15 0 0 1 3.93 -0.71 11.17 11.17 0 0 1 7.43 2.83 10.17 10.17 0 0 1 2.3 3 8 8 0 0 1 0.85 3.7 8.45 8.45 0 0 1 -0.9 3.91 9.87 9.87 0 0 1 -2.37 3 10.72 10.72 0 0 1 -3.38 2 11.78 11.78 0 0 1 -8.07 0 10.54 10.54 0 0 1 -3.36 -2 9.57 9.57 0 0 1 -2.25 -3 8.71 8.71 0 0 1 -0.83 -3.91z"/></svg><svg id="icon-nr-3" data-name="Nr 3" height="90" width="90" viewBox="0 0 70 70" y="316"><defs><style>.cls-1{fill:#04e0d7;}</style></defs><title>icon-nr-3</title><path class="cls-1" d="m18.15 17.12q-5.81 0-14.91 2.74l-3.24-12.25a50 50 0 0 1 21.12 -5 24.06 24.06 0 0 1 7.52 1.14 21.08 21.08 0 0 1 6.1 3.09 14.73 14.73 0 0 1 4.09 4.57 11.13 11.13 0 0 1 1.49 5.55q0 9.56-8.87 15.27a19.74 19.74 0 0 1 8.66 6.65 17.4 17.4 0 0 1 3 10.36 15.61 15.61 0 0 1 -1.65 7.11 16.48 16.48 0 0 1 -4.56 5.65 22.64 22.64 0 0 1 -7.27 3.68 31.66 31.66 0 0 1 -9.47 1.32 66.54 66.54 0 0 1 -20.16 -3.7l3.2-13.72a36.94 36.94 0 0 0 13.9 3 10.8 10.8 0 0 0 5.62 -1.19q1.92-1.19 1.92-4.16a5.68 5.68 0 0 0 -1.5 -4.23 9.91 9.91 0 0 0 -4 -2.36 23.31 23.31 0 0 0 -5.49 -1q-3-0.23-6-0.23v-11.59q8.14 0 12.32-1.69t4.18-4.71a3.65 3.65 0 0 0 -1.49 -3.42 8.78 8.78 0 0 0 -4.51 -0.88z"/><path class="cls-1" d="m48.92 57.91a8.19 8.19 0 0 1 0.89 -3.79 9.54 9.54 0 0 1 2.35 -3 11.26 11.26 0 0 1 3.36 -1.94 11.09 11.09 0 0 1 3.91 -0.71 11.1 11.1 0 0 1 7.38 2.81 10.11 10.11 0 0 1 2.29 3 8 8 0 0 1 0.9 3.63 8.4 8.4 0 0 1 -0.89 3.89 9.81 9.81 0 0 1 -2.35 3 10.66 10.66 0 0 1 -3.36 1.94 11.71 11.71 0 0 1 -8 0 10.48 10.48 0 0 1 -3.34 -2 9.52 9.52 0 0 1 -2.24 -3 8.66 8.66 0 0 1 -0.9 -3.83z"/></svg></svg>
