<svg id="icon-profil-male" data-name="Ebene 1" xmlns="http://www.w3.org/2000/svg" width="34px" height="34px" viewBox="0 0 70 70"><defs><style>.icon-profil-male{fill:#04e0d7;}</style></defs><title>icons_meineperfektewg</title><path class="icon-profil-male" d="M41,0.6C32.34-1.46,24.95,1.93,19.47,8.52c-3.61-.39-7.6,2.63-8.83,7.86,1.35-5,5.8-8,8.63-7.45-4.75,0-9,5-9.51,13.47l0.67-1c0.08,3.34.22,6.2,0.61,9.52l0.22-.68a6.14,6.14,0,0,0,0,.62c0,0.59.07,1.4,0.1,1.68a1.14,1.14,0,0,1,.45.14c0.24,2.76.47,5.25,0.93,8.32L13,39.84a19.45,19.45,0,0,0,1.56,4.84c0.17,1.26.32,2.44,0.52,3.57,0.71,4,1.19,7.27,2.47,9.92,1.09,2.28,3.44,4.65,5.48,6.49a21.72,21.72,0,0,0,8.21,5,14.83,14.83,0,0,0,6.58,0,25.57,25.57,0,0,0,8.88-5.44,23.37,23.37,0,0,0,5.28-6.49c1.27-2.66,1.29-5.48,2-9.45,0.27-1.47.44-3,.67-4.75,1.53-3.4.81-5.52,1.78-9.37,0,1.23.17,2.18,0.3,3.37,0.59-3.46,1.31-5.56,1.76-8C61.64,12.53,52.77,3.38,41,.6m-29.59,29,0.06-.18v0.12l-0.07.06m8.49-14.67c21.82-7.29,23.88,5,32.23,12.14l-0.81-2.24a11.86,11.86,0,0,1,2.23,3.84l-0.78-.12a36.74,36.74,0,0,0-6.2-.49,45.81,45.81,0,0,0-10.09,1.78l-2.09.07,0,0.08,0-.08-2.09-.07A45.8,45.8,0,0,0,22.2,28a35.89,35.89,0,0,0-5.94.45c0.85-4.41,2.57-8.41,3.68-13.58m-4.41,20.3A46.36,46.36,0,0,0,16,30.16a10.91,10.91,0,0,1,5.56-1.09c3.28,0,7.9.82,9,2.7a5,5,0,0,1,.36,3.55A9.37,9.37,0,0,1,27,41.56a10.33,10.33,0,0,1-6.82,1.33,7.49,7.49,0,0,1-3.93-1.43A5,5,0,0,1,15,39.29a30.62,30.62,0,0,1,.57-4.08M42,56.53a12,12,0,0,1-2.69,1.53,5.12,5.12,0,0,1-2.54.15A17,17,0,0,0,34.52,58a14,14,0,0,0-2.27.23,5.12,5.12,0,0,1-2.54-.15A12,12,0,0,1,27,56.53a10.39,10.39,0,0,1-2.13-1.84,4.45,4.45,0,0,0,1.31-.2,7.53,7.53,0,0,0,3.3-2,4.45,4.45,0,0,1-.88,1.2c0.63-.27,2.74-1.76,3.55-2.17,0.27-.14.41-0.08,0.34,0.53,0.29-.06,2-0.54,2.15-0.52,0.71,0.13,1.74.46,1.91,0.46,0-.19-0.09-0.63.28-0.55A19.53,19.53,0,0,1,39.42,53c-0.1-.5-0.51-0.78-0.37-1.06a13.38,13.38,0,0,0,3.34,2.26,6.83,6.83,0,0,1-.46-0.77,4.71,4.71,0,0,0,2.27,1.23A11.15,11.15,0,0,1,42,56.53m7.73-6.91c-1.21,2.35-1.09,3.16-2.88,6.18,0.71-4.45-1.6-5.62-6.27-7,0.93-.22,1.89-0.19,2.8-0.41a23.94,23.94,0,0,0-5.09-1c-0.3,0-1.63,1.11-3,1.13s-2.66-1-2.87-1a31.78,31.78,0,0,0-4.82,1.06L30,49c-5.7,2.81-5.67.56-7.45,6.63-5.05-8.93-5.63-4.43-7.56-13.43h0a3.22,3.22,0,0,0,.64.59c3,1.44,8,1.94,11.11.43,1.8-.88,3.22-2.5,4.56-5a29.08,29.08,0,0,0,1.62-4,1.41,1.41,0,0,1,1.5-.81,1.41,1.41,0,0,1,1.5.81,28.93,28.93,0,0,0,1.62,4c1.34,2.53,2.76,4.14,4.56,5,3.07,1.5,8.11,1,11.09-.42-1.24,2.69-2.72,5.42-3.45,6.85m4.4-11.22a6.22,6.22,0,0,1-1.55,3.06,7.5,7.5,0,0,1-3.93,1.43,10.33,10.33,0,0,1-6.82-1.33,9.37,9.37,0,0,1-3.94-6.24,5,5,0,0,1,.36-3.55c1.09-1.88,5.72-2.69,9-2.7,3.49,0,5.64.7,6.71,2.1,0,1.45-.22,3.1-0.29,5.41l0.61-.68c0,0.48,0,1,.07,1.6-0.07.3-.13,0.61-0.21,0.9"/></svg>