<svg id="Ebene_1" data-name="Ebene 1" xmlns="http://www.w3.org/2000/svg" viewBox="0 0 70 70"><defs><style>.cls-1{fill:#1d1d1b;}</style></defs><title>icons_meineperfektewg</title><path class="cls-1" d="M13.63,4l0.74-1.61a3.79,3.79,0,0,1,5-2L55.44,16.79a3.8,3.8,0,0,1,1.72,5.08l-0.74,1.61Z"/><path class="cls-1" d="M31,3.53l0.11-.24a3.91,3.91,0,0,1,5.17-1.93l7.39,3.37A3.9,3.9,0,0,1,45.56,9.9l-0.11.24Z"/><path class="cls-1" d="M19.79,35.34l2.5,26.51a1.71,1.71,0,1,0,3.4-.32L23.19,35a1.71,1.71,0,1,0-3.4.32M32,61.68a1.71,1.71,0,1,0,3.42,0V35.05a1.71,1.71,0,1,0-3.42,0V61.68Zm11.52,1.71a1.76,1.76,0,0,0,1.87-1.63l2.5-26.51a1.71,1.71,0,1,0-3.4-.32L42,61.44a1.76,1.76,0,0,0,1.53,1.95m11.6-37.28L50.62,64.57A6.32,6.32,0,0,1,44.51,70H23a6.31,6.31,0,0,1-6.1-5.43L12.46,26.11H55.08Z"/></svg>