<svg xmlns="http://www.w3.org/2000/svg" id="icon-nr-1-icon-nr-1" data-name="Nr 1" height="90" width="90" viewBox="0 0 70 70"><defs><style>.cls-1{fill:#04e0d7;}</style></defs><title>icon-nr-1</title><path class="cls-1" d="m1.17 53.34h8.58v-34l-8.58 0.66v-13.31a32.39 32.39 0 0 0 9.55 -1.62 39.15 39.15 0 0 0 10.28 -5.07h10.71v53.34h8.58v15.06h-39.12v-15.06z"/><path class="cls-1" d="m45.88 59.62a8.94 8.94 0 0 1 1 -4.14 10.43 10.43 0 0 1 2.57 -3.24 12.32 12.32 0 0 1 3.67 -2.12 12.1 12.1 0 0 1 4.27 -0.77 12.1 12.1 0 0 1 8.06 3.07 11 11 0 0 1 2.49 3.27 8.71 8.71 0 0 1 0.92 3.94 9.16 9.16 0 0 1 -1 4.24 10.71 10.71 0 0 1 -2.57 3.27 11.63 11.63 0 0 1 -3.67 2.12 12.78 12.78 0 0 1 -8.76 -0.05 11.44 11.44 0 0 1 -3.64 -2.21 10.39 10.39 0 0 1 -2.45 -3.29 9.45 9.45 0 0 1 -0.89 -4.09z"/></svg>