<svg id="svg-icon-add" data-name="Icon add" xmlns="http://www.w3.org/2000/svg" viewBox="0 0 70 70" width="30px" height="30px"><defs><style>.svg-icon-add{fill:#04e0d7;}.svg-icon-add-2{fill:#fff;}</style></defs><title>icons_meineperfektewg</title>
<path class="svg-icon-add" d="M35,70A35,35,0,1,1,70,35,35,35,0,0,1,35,70"/>
<path class="svg-icon-add-2" d="M30.39,19.74h10c0,3.33.05,6.68,0.07,10,3.33,0,6.68.05,10,.07v10l-10,.05c0,3.35-.05,6.68-0.07,10-3.33,0-6.66,0-10,0,0-3.35,0-6.68-.07-10-3.33,0-6.68-.05-10-0.07v-10c3.33,0,6.66,0,10-.07,0-3.33.05-6.68,0.08-10"/>
</svg>
