<svg xmlns="http://www.w3.org/2000/svg" id="icon-nr-2-icon-nr-2" data-name="Nr 2" height="90" width="90" viewBox="0 0 70 70"><defs><style>.cls-1{fill:#04e0d7;}</style></defs><title>icon-nr-2</title><path class="cls-1" d="m16.05 18.07a10 10 0 0 0 -1.56 0.14q-0.87 0.14-1.72 0.32t-1.56 0.41l-1.13 0.37-1.2 0.53-1.82 0.8q-0.94 0.42-2.32 1.06l-4.74-14.02a86.76 86.76 0 0 1 11.41 -3.86 44.66 44.66 0 0 1 11.13 -1.38 20.85 20.85 0 0 1 8.55 1.66 18.25 18.25 0 0 1 6.28 4.5 19.32 19.32 0 0 1 3.86 6.62 24.2 24.2 0 0 1 1.31 8 20.6 20.6 0 0 1 -1.79 8.49 31.76 31.76 0 0 1 -4.81 7.59 46.62 46.62 0 0 1 -6.94 6.62 76 76 0 0 1 -8.19 5.59l-1.43 0.87h21.2v13.71h-39.52v-13.24q5-4.65 9-9a107.1 107.1 0 0 0 7 -8.23 49.29 49.29 0 0 0 4.51 -7 12.11 12.11 0 0 0 1.61 -5.29 4.45 4.45 0 0 0 -0.64 -2.44 5 5 0 0 0 -1.68 -1.63 7.54 7.54 0 0 0 -2.3 -0.9 11.73 11.73 0 0 0 -2.51 -0.29z"/><path class="cls-1" d="m48.84 58a8.24 8.24 0 0 1 0.9 -3.82 9.59 9.59 0 0 1 2.37 -3 11.33 11.33 0 0 1 3.38 -2 11.15 11.15 0 0 1 3.93 -0.71 11.17 11.17 0 0 1 7.43 2.83 10.17 10.17 0 0 1 2.3 3 8 8 0 0 1 0.85 3.7 8.45 8.45 0 0 1 -0.9 3.91 9.87 9.87 0 0 1 -2.37 3 10.72 10.72 0 0 1 -3.38 2 11.78 11.78 0 0 1 -8.07 0 10.54 10.54 0 0 1 -3.36 -2 9.57 9.57 0 0 1 -2.25 -3 8.71 8.71 0 0 1 -0.83 -3.91z"/></svg>