<?xml version="1.0" encoding="utf-8"?>
<!-- Generator: Adobe Illustrator 18.1.1, SVG Export Plug-In . SVG Version: 6.00 Build 0)  -->
<svg version="1.1" id="Ebene_1" xmlns="http://www.w3.org/2000/svg" xmlns:xlink="http://www.w3.org/1999/xlink" x="0px" y="0px"
	 viewBox="0 0 300 300" enable-background="new 0 0 300 300" xml:space="preserve">
<circle fill="#32DBCC" cx="149.75" cy="149.5" r="130.5"/>
<g>
	<path d="M149.866,23.831c-69.599,0-126.223,56.197-126.223,125.273c0,69.075,56.623,125.272,126.223,125.272
		s126.222-56.197,126.222-125.272C276.087,80.029,219.465,23.831,149.866,23.831z"/>
	<path d="M282.906,163.163l11.597-14.06l-11.597-14.06l8.436-16.176l-14.251-11.328l4.905-17.589l-16.278-8.102l1.159-18.228
		l-17.598-4.523l-2.634-18.072l-18.15-0.745l-6.311-17.123l-17.907,3.065l-9.718-15.433l-16.88,7.507L164.985,6h-0.004
		l-15.115,10.124L134.749,6h-0.004l-12.693,12.296l-16.883-7.125l-9.716,15.242l-17.905-3.161l-6.313,17.075l-18.15,0.721
		l-2.632,18.06L32.85,63.626l1.163,18.225l-16.28,8.101l4.905,17.588L8.39,118.867l8.434,16.176l-11.594,14.06l11.594,14.06
		L8.39,179.34l14.248,11.328l-4.905,17.589l16.28,8.1l-1.163,18.23l17.602,4.523l2.632,18.072l18.15,0.743l6.313,17.125
		l17.905-3.065l9.716,15.433l16.883-6.742l12.695,13.063l15.119-10.126l15.117,10.126l12.695-13.063l16.88,6.742l9.718-15.433
		l17.907,3.065l6.311-17.125l18.15-0.743l2.634-18.072l17.598-4.523l-1.159-18.23l16.278-8.1l-4.905-17.589l14.251-11.328
		L282.906,163.163z M149.866,277.389c-71.261,0-129.235-57.548-129.235-128.285S78.604,20.819,149.866,20.819
		c71.26,0,129.234,57.549,129.234,128.286S221.126,277.389,149.866,277.389z"/>
</g>
<text transform="matrix(0.3554 -0.9347 0.9347 0.3554 254.7815 192.826)" fill="#1D1D1B" font-family="'Jaapokki-Regular'" font-size="24.106"> </text>
<g>
	<defs>
		<rect id="SVGID_1_" x="6.24" y="1" width="292.532" height="293.728"/>
	</defs>
	<clipPath id="SVGID_2_">
		<use xlink:href="#SVGID_1_"  overflow="visible"/>
	</clipPath>
</g>
<text transform="matrix(0.488 -0.8729 0.8729 0.488 247.2513 204.23)" fill="#1D1D1B" font-family="'Jaapokki-Regular'" font-size="24.1061"> </text>
<g>
	<defs>
		<rect id="SVGID_3_" x="4.725" y="-2" width="294.046" height="293.728"/>
	</defs>
	<clipPath id="SVGID_4_">
		<use xlink:href="#SVGID_3_"  overflow="visible"/>
	</clipPath>
</g>
<g>
	<defs>
		<rect id="SVGID_5_" y="-0.805" width="294.69" height="293.728"/>
	</defs>
	<clipPath id="SVGID_6_">
		<use xlink:href="#SVGID_5_"  overflow="visible"/>
	</clipPath>
</g>
</svg>
